<svg xmlns="http://www.w3.org/2000/svg" viewBox="0 0 43 40.48"><path d="M21,0C9.13,0,0,8.06,0,18c0,7,4.07,12.62,10.64,15.28A24.56,24.56,0,0,0,20,35c.8,0,1.59,0,2.38-.09-.07,1.61-.14,3-.18,4a1.49,1.49,0,0,0,1.35,1.55c.47-.17.93-.36,1.41-.57h0a36.33,36.33,0,0,0,7.43-4.45c6.63-5.1,10.67-11.54,10.52-16.1A10.14,10.14,0,0,0,43,18C43,8.06,32.87,0,21,0ZM10.91,21.91a3,3,0,1,1,3-3A3,3,0,0,1,10.91,21.91Zm11,0a3,3,0,1,1,3-3A3,3,0,0,1,21.91,21.91Zm11,0a3,3,0,1,1,3-3A3,3,0,0,1,32.91,21.91Z" style="fill:#fff"/></svg>